<svg width="1600" height="1000" viewBox="0 0 1600 1000" fill="none" xmlns="http://www.w3.org/2000/svg">
  <defs>
    <linearGradient id="bg" x1="0" y1="0" x2="1600" y2="1000" gradientUnits="userSpaceOnUse">
      <stop stop-color="#0a0b12"/>
      <stop offset="1" stop-color="#12101d"/>
    </linearGradient>
    <linearGradient id="panel" x1="0" y1="0" x2="0" y2="1">
      <stop stop-color="#161826" stop-opacity=".95"/>
      <stop offset="1" stop-color="#0c0e18" stop-opacity=".95"/>
    </linearGradient>
    <filter id="blur"><feGaussianBlur stdDeviation="60"/></filter>
  </defs>
  <rect width="1600" height="1000" fill="url(#bg)"/>
  <ellipse cx="1300" cy="250" rx="420" ry="300" fill="#a78bfa" fill-opacity=".08" filter="url(#blur)"/>
  <g stroke="white" stroke-opacity=".04">
    <path d="M0 150H1600M0 300H1600M0 450H1600M0 600H1600M0 750H1600M0 900H1600"/>
    <path d="M200 0V1000M400 0V1000M600 0V1000M800 0V1000M1000 0V1000M1200 0V1000M1400 0V1000"/>
  </g>
  <rect x="180" y="160" width="740" height="680" rx="36" fill="url(#panel)" stroke="white" stroke-opacity=".1"/>
  <rect x="220" y="220" width="300" height="22" rx="11" fill="#a78bfa" fill-opacity=".7"/>
  <rect x="220" y="270" width="180" height="14" rx="7" fill="white" fill-opacity=".3"/>
  <rect x="220" y="300" width="240" height="14" rx="7" fill="white" fill-opacity=".2"/>
  <rect x="220" y="360" width="600" height="180" rx="20" fill="#1a1c2e" stroke="white" stroke-opacity=".08"/>
  <circle cx="270" cy="430" r="34" fill="#a78bfa" fill-opacity=".25"/>
  <path d="M262 422L278 422M270 414V430M270 430L282 442M270 430L258 442" stroke="#a78bfa" stroke-width="2.4" stroke-linecap="round"/>
  <rect x="340" y="402" width="180" height="12" rx="6" fill="white" fill-opacity=".25"/>
  <rect x="340" y="428" width="240" height="12" rx="6" fill="white" fill-opacity=".16"/>
  <rect x="340" y="454" width="150" height="12" rx="6" fill="white" fill-opacity=".1"/>
  <rect x="860" y="160" width="560" height="320" rx="36" fill="url(#panel)" stroke="white" stroke-opacity=".1"/>
  <rect x="900" y="220" width="200" height="16" rx="8" fill="white" fill-opacity=".35"/>
  <rect x="900" y="258" width="460" height="10" rx="5" fill="white" fill-opacity=".15"/>
  <rect x="900" y="284" width="360" height="10" rx="5" fill="white" fill-opacity=".12"/>
  <path d="M900 380L960 320L1040 400L1120 330L1240 440" stroke="#a78bfa" stroke-width="2.4" fill="none" stroke-linecap="round" stroke-linejoin="round"/>
  <rect x="860" y="520" width="560" height="320" rx="36" fill="url(#panel)" stroke="white" stroke-opacity=".1"/>
  <rect x="900" y="580" width="220" height="16" rx="8" fill="white" fill-opacity=".35"/>
  <circle cx="980" cy="690" r="50" fill="#6ee7ff" fill-opacity=".18"/>
  <circle cx="1180" cy="690" r="50" fill="#34d399" fill-opacity=".18"/>
  <circle cx="980" cy="690" r="16" fill="#6ee7ff" fill-opacity=".8"/>
  <circle cx="1180" cy="690" r="16" fill="#34d399" fill-opacity=".8"/>
</svg>
